<svg xmlns="http://www.w3.org/2000/svg" width="114" height="28" viewBox="0 0 114 28">
    <g fill="none" fill-rule="evenodd">
        <g>
            <rect width="28.099" height="28" fill="#8144E5" rx="4"/>
            <path fill="#F3EFFF" fill-rule="nonzero" d="M20.445 18.26l-5.494 2.807a2.01 2.01 0 0 1-1.803 0L7.653 18.26c-.56-.287-.91-.82-.91-1.398v-8.53c0-.89.812-1.612 1.812-1.612h10.988c1.002 0 1.812.722 1.812 1.612v8.53c0 .577-.347 1.111-.91 1.398zm-6.396-6.327c.73 0 1.32-.588 1.32-1.315 0-.726-.59-1.315-1.32-1.315-.729 0-1.32.589-1.32 1.315 0 .727.591 1.315 1.32 1.315z"/>
        </g>
        <path fill="#23263C" d="M38.089 20.364c-1.935 0-3.726-.956-4.37-2.508l2.292-.835c.43.86 1.218 1.241 2.054 1.241.932 0 1.6-.477 1.6-1.241 0-.765-.788-1.027-2.125-1.48-1.792-.622-3.344-1.457-3.344-3.487 0-2.22 1.863-3.343 3.94-3.343 1.577 0 3.01.716 3.679 1.982l-2.102 1.027a1.907 1.907 0 0 0-1.672-.98c-.74 0-1.361.359-1.361 1.147s.645 1.003 2.03 1.48c1.6.526 3.535 1.29 3.535 3.534 0 2.364-2.126 3.463-4.156 3.463zM50.501 8.71c3.01 0 5.541 2.579 5.541 5.826 0 3.248-2.531 5.827-5.54 5.827-1.53 0-2.771-.55-3.679-1.457v6.853h-2.675V8.926h2.675v1.242c.908-.908 2.15-1.457 3.678-1.457zm-.453 9.193c1.863 0 3.343-1.48 3.343-3.367 0-1.886-1.48-3.367-3.343-3.367-1.887 0-3.392 1.48-3.392 3.367s1.505 3.367 3.392 3.367zm13.296 2.46c-3.368 0-5.947-2.58-5.947-5.827s2.579-5.826 5.947-5.826c3.32 0 5.899 2.579 5.899 5.826 0 3.248-2.58 5.827-5.9 5.827zm0-2.484c1.815 0 3.32-1.48 3.32-3.343a3.333 3.333 0 0 0-3.32-3.343c-1.887 0-3.368 1.48-3.368 3.343s1.48 3.343 3.368 3.343zm13.2 2.484c-3.368 0-5.947-2.58-5.947-5.827s2.58-5.826 5.947-5.826c2.412 0 4.466 1.385 5.35 3.462l-2.293 1.003c-.525-1.194-1.648-2.006-3.057-2.006-1.935 0-3.368 1.457-3.368 3.367s1.433 3.367 3.368 3.367c1.41 0 2.532-.812 3.057-2.006l2.293 1.003c-.884 2.078-2.938 3.463-5.35 3.463zM94.068 8.926l-5.183 5.611 5.183 5.612h-3.44l-4.203-4.776v4.776H83.75V2.24h2.675v11.462l4.203-4.776h3.44zm11.839 5.492l-.024.573h-9.076c.191 1.91 1.6 3.176 3.368 3.176 1.241 0 2.364-.621 3.009-1.696l2.15.884c-.932 1.862-2.819 3.009-5.136 3.009-3.51 0-5.994-2.58-5.994-5.827s2.531-5.826 5.923-5.826c3.224 0 5.732 2.34 5.78 5.707zm-5.756-3.558c-1.529 0-2.7.884-3.153 2.268h6.162c-.454-1.384-1.505-2.268-3.01-2.268zm13.367-1.934v2.197h-2.22v9.026h-2.676v-9.026h-2.245V8.926h2.245V4.89h2.675v4.036h2.221z"/>
    </g>
</svg>
